<svg width="200" height="200" viewBox="0 0 200 200" fill="none" xmlns="http://www.w3.org/2000/svg">
<path d="M89.9978 144.369L95.0037 143.027C91.6859 132.924 88.156 124.797 84.414 118.646C80.5688 112.435 73.9094 104.187 64.4357 93.9007C57.0874 86.0115 52.0263 79.8213 49.2525 75.33C46.457 70.7574 44.3831 65.9478 43.0308 60.9012C40.2609 50.5638 40.8256 41.6012 44.7248 34.0133C48.5426 26.4472 54.44 21.5955 62.4169 19.4581C69.4984 17.5606 75.5212 17.7353 80.4853 19.982C85.4494 22.2288 88.4548 25.3057 89.5017 29.2127C90.3087 32.2244 90.0801 36.2551 88.816 41.3049C87.5518 46.3546 87.2251 50.019 87.8358 52.2981C88.6209 55.2284 90.2222 57.4602 92.6396 58.9935C95.0352 60.4454 97.576 60.8115 100.262 60.0917C103.681 59.1757 106.367 56.6674 108.322 52.5667C110.174 48.4065 110.292 43.3147 108.678 37.2914C106.214 28.0935 100.085 21.0116 90.2921 16.0457C80.4991 11.0797 68.8466 10.407 55.3347 14.0275C38.567 18.5204 27.544 26.7085 22.2657 38.5917C18.3244 47.325 17.5206 56.0464 19.8543 64.7558C21.4465 70.6978 24.4253 76.4427 28.7908 81.9905C33.0749 87.5602 40.0546 93.5852 49.73 100.066C65.1094 110.252 74.8946 117.794 79.0856 122.691C83.1734 127.528 86.8108 134.754 89.9978 144.369ZM95.7639 159.051C91.9382 160.076 89.0829 162.28 87.198 165.664C85.2098 168.989 84.7282 172.564 85.7533 176.389C86.7566 180.134 88.9611 182.989 92.367 184.955C95.751 186.84 99.3151 187.281 103.059 186.278C106.804 185.274 109.67 183.111 111.658 179.786C113.543 176.402 113.984 172.838 112.981 169.094C111.956 165.268 109.792 162.402 106.489 160.495C103.083 158.529 99.5081 158.047 95.7639 159.051Z" fill="white"/>
<path d="M109.311 144.118L104.305 142.776C107.623 132.673 111.153 124.546 114.895 118.395C118.74 112.184 125.399 103.936 134.873 93.6498C142.221 85.7605 147.282 79.5703 150.056 75.0791C152.852 70.5064 154.926 65.6968 156.278 60.6502C159.048 50.3128 158.483 41.3502 154.584 33.7623C150.766 26.1963 144.869 21.3445 136.892 19.2071C129.81 17.3096 123.787 17.4843 118.823 19.731C113.859 21.9778 110.854 25.0547 109.807 28.9618C109 31.9734 109.228 36.0042 110.493 41.0539C111.757 46.1036 112.084 49.7681 111.473 52.0472C110.688 54.9775 109.086 57.2092 106.669 58.7425C104.273 60.1944 101.733 60.5605 99.0465 59.8408C95.6278 58.9247 92.9412 56.4164 90.9865 52.3158C89.135 48.1556 89.0163 43.0638 90.6302 37.0404C93.0948 27.8425 99.2236 20.7606 109.017 15.7947C118.81 10.8288 130.462 10.1561 143.974 13.7765C160.742 18.2695 171.765 26.4575 177.043 38.3407C180.984 47.074 181.788 55.7954 179.454 64.5048C177.862 70.4468 174.883 76.1917 170.518 81.7395C166.234 87.3092 159.254 93.3343 149.579 99.8148C134.199 110.001 124.414 117.543 120.223 122.44C116.135 127.277 112.498 134.503 109.311 144.118ZM103.545 158.8C107.37 159.825 110.226 162.029 112.111 165.413C114.099 168.738 114.58 172.313 113.555 176.138C112.552 179.883 110.347 182.738 106.942 184.704C103.558 186.589 99.9935 187.03 96.2492 186.027C92.5049 185.024 89.6387 182.86 87.6506 179.535C85.7656 176.151 85.3248 172.587 86.328 168.843C87.3531 165.017 89.517 162.151 92.8196 160.244C96.2254 158.278 99.8005 157.796 103.545 158.8Z" fill="white"/>
</svg>
