<svg width="200" height="200" viewBox="0 0 200 200" fill="none" xmlns="http://www.w3.org/2000/svg">
<path d="M89.9939 144.369L94.9998 143.027C91.682 132.924 88.1521 124.797 84.4101 118.646C80.5649 112.435 73.9055 104.187 64.4318 93.9007C57.0835 86.0115 52.0224 79.8213 49.2486 75.33C46.4531 70.7574 44.3792 65.9478 43.0269 60.9012C40.257 50.5638 40.8217 41.6012 44.7209 34.0133C48.5387 26.4472 54.4361 21.5955 62.413 19.4581C69.4945 17.5606 75.5173 17.7353 80.4814 19.982C85.4454 22.2288 88.4509 25.3057 89.4978 29.2127C90.3048 32.2244 90.0762 36.2551 88.8121 41.3049C87.5479 46.3546 87.2212 50.019 87.8319 52.2981C88.617 55.2284 90.2183 57.4602 92.6357 58.9935C95.0313 60.4454 97.5721 60.8115 100.258 60.0917C103.677 59.1757 106.364 56.6674 108.318 52.5667C110.17 48.4065 110.288 43.3147 108.674 37.2914C106.21 28.0935 100.081 21.0116 90.2881 16.0457C80.4952 11.0797 68.8427 10.407 55.3308 14.0275C38.5631 18.5204 27.5401 26.7085 22.2618 38.5917C18.3205 47.325 17.5167 56.0464 19.8504 64.7558C21.4426 70.6978 24.4214 76.4427 28.7869 81.9905C33.071 87.5602 40.0507 93.5852 49.7261 100.066C65.1055 110.252 74.8907 117.794 79.0817 122.691C83.1695 127.528 86.8069 134.754 89.9939 144.369ZM95.76 159.051C91.9343 160.076 89.079 162.28 87.194 165.664C85.2059 168.989 84.7243 172.564 85.7494 176.389C86.7527 180.134 88.9572 182.989 92.3631 184.955C95.7471 186.84 99.3112 187.281 103.055 186.278C106.8 185.274 109.666 183.111 111.654 179.786C113.539 176.402 113.98 172.838 112.977 169.094C111.952 165.268 109.788 162.402 106.485 160.495C103.079 158.529 99.5042 158.047 95.76 159.051Z" fill="black"/>
<path d="M109.307 144.118L104.301 142.776C107.619 132.673 111.149 124.546 114.891 118.395C118.736 112.184 125.395 103.936 134.869 93.6498C142.217 85.7605 147.278 79.5703 150.052 75.0791C152.848 70.5064 154.922 65.6968 156.274 60.6502C159.044 50.3128 158.479 41.3502 154.58 33.7623C150.762 26.1963 144.865 21.3445 136.888 19.2071C129.806 17.3096 123.783 17.4843 118.819 19.731C113.855 21.9778 110.85 25.0547 109.803 28.9618C108.996 31.9734 109.225 36.0042 110.489 41.0539C111.753 46.1036 112.08 49.7681 111.469 52.0472C110.684 54.9775 109.082 57.2092 106.665 58.7425C104.27 60.1944 101.729 60.5605 99.0426 59.8408C95.6239 58.9247 92.9373 56.4164 90.9826 52.3158C89.1311 48.1556 89.0124 43.0638 90.6263 37.0404C93.0909 27.8425 99.2196 20.7606 109.013 15.7947C118.806 10.8288 130.458 10.1561 143.97 13.7765C160.738 18.2695 171.761 26.4575 177.039 38.3407C180.98 47.074 181.784 55.7954 179.45 64.5048C177.858 70.4468 174.879 76.1917 170.514 81.7395C166.23 87.3092 159.25 93.3343 149.575 99.8148C134.195 110.001 124.41 117.543 120.219 122.44C116.131 127.277 112.494 134.503 109.307 144.118ZM103.541 158.8C107.366 159.825 110.222 162.029 112.107 165.413C114.095 168.738 114.576 172.313 113.551 176.138C112.548 179.883 110.344 182.738 106.938 184.704C103.554 186.589 99.9896 187.03 96.2453 186.027C92.501 185.024 89.6348 182.86 87.6467 179.535C85.7617 176.151 85.3209 172.587 86.3241 168.843C87.3492 165.017 89.5131 162.151 92.8157 160.244C96.2215 158.278 99.7966 157.796 103.541 158.8Z" fill="black"/>
</svg>
